<?xml version="1.0" encoding="utf-8"?>
<!-- Generator: Adobe Illustrator 26.1.0, SVG Export Plug-In . SVG Version: 6.00 Build 0)  -->
<svg version="1.1" id="Layer_1" xmlns="http://www.w3.org/2000/svg" xmlns:xlink="http://www.w3.org/1999/xlink" x="0px" y="0px"
	 viewBox="0 0 433.08 117.21" style="enable-background:new 0 0 433.08 117.21;" xml:space="preserve">
<g>
	<g>
		<path d="M181.6,88.31v-3.67h7.37V32.98h-7.37v-3.69h40.58v7.39h3.69v7.36h-3.69v-3.67h-3.69v-3.69h-3.69v-3.69h-18.44v22.14h18.44
			v-7.39h3.69v18.44h-3.69v-7.36h-18.44v25.83h7.39v3.67H181.6z"/>
		<path d="M242.48,84.64v-3.69h-3.69v-3.69h-3.69v-7.39h-3.67V47.73h3.67v-7.36h3.69v-3.69h3.69v-3.69h7.39v3.69h-3.69v3.69h-3.69
			v7.36h-3.69v22.14h3.69v7.39h3.69v3.69h3.69v3.69H242.48z M249.86,32.98v-3.69h18.45v3.69H249.86z M249.86,88.31v-3.67h18.45v3.67
			H249.86z M268.31,84.64v-3.69H272v-3.69h3.69v-7.39h3.67V47.73h-3.67v-7.36H272v-3.69h-3.69v-3.69h7.39v3.69h3.67v3.69h3.69v7.36
			h3.69v22.14h-3.69v7.39h-3.69v3.69h-3.67v3.69H268.31z"/>
		<path d="M308.9,84.64v-3.69h-3.69v-3.69h-3.69v-7.39h-3.67V47.73h3.67v-7.36h3.69v-3.69h3.69v-3.69h7.39v3.69h-3.69v3.69h-3.69
			v7.36h-3.69v22.14h3.69v7.39h3.69v3.69h3.69v3.69H308.9z M316.29,32.98v-3.69h18.44v3.69H316.29z M316.29,88.31v-3.67h18.44v3.67
			H316.29z M334.73,84.64v-3.69h3.69v-3.69h3.69v-7.39h3.67V47.73h-3.67v-7.36h-3.69v-3.69h-3.69v-3.69h7.39v3.69h3.67v3.69h3.69
			v7.36h3.69v22.14h-3.69v7.39h-3.69v3.69h-3.67v3.69H334.73z"/>
		<path d="M356.87,88.31v-3.67h7.37V32.98h-7.37v-3.69h36.89v3.69h-22.14v51.66h22.14v3.67H356.87z M393.76,84.64v-3.69h3.69v-3.69
			h3.69v-7.39h3.67V47.73h-3.67v-7.36h-3.69v-3.69h-3.69v-3.69h7.39v3.69h3.67v3.69h3.69v7.36h3.69v22.14h-3.69v7.39h-3.69v3.69
			h-3.67v3.69H393.76z"/>
	</g>
	<g>
		<path d="M20.88,87.82V28.9h33.66v4.23h4.2v4.2h4.2v4.2h4.23v33.69h-4.23v4.2h-4.2v4.2h-4.2v4.2H20.88z M50.34,79.42v-4.2h4.2
			v-4.23h4.2V45.76h-4.2v-4.23h-4.2v-4.2H29.28v42.09H50.34z"/>
		<path d="M75.55,87.82V28.9h8.4v58.92H75.55z"/>
		<path d="M104.95,87.82v-4.2h-4.2v-4.2h-4.2v-4.2h-4.2V41.53h4.2v-4.2h4.2v-4.2h4.2V28.9h25.26v4.23h4.2v4.2h4.23v4.2h4.2v8.43
			h-8.43v-4.2h-4.2v-4.23h-4.2v-4.2h-16.83v4.2h-4.23v4.23h-4.2v25.23h4.2v4.23h4.23v4.2h16.83v-4.2h4.2v-4.23h4.2v-4.2h-12.6v-8.43
			h21.03v29.46h-8.43v-8.4h-4.2v4.2h-4.2v4.2H104.95z"/>
		<path d="M151.23,87.82V28.9h8.4v58.92H151.23z"/>
	</g>
</g>
</svg>
