<?xml version="1.0" encoding="UTF-8"?><svg id="a" xmlns="http://www.w3.org/2000/svg" viewBox="0 0 500.65 117.21"><path d="M21.31,88.04V29.17H54.95v4.23h4.2v4.2h4.2v21.01h-4.2v4.23h-4.2v4.2H29.71v21.01h-8.39Zm29.44-29.44v-4.2h4.2v-12.62h-4.2v-4.2H29.71v21.01h21.04Z"/><path d="M71.72,88.04V29.17h37.83v4.23h4.2v4.2h4.23v18.91h-4.23v4.23h-4.2v4.2h4.2v4.2h4.23v18.91h-8.42v-14.72h-4.2v-4.2h-4.2v-4.2h-21.04v23.11h-8.39Zm33.63-31.54v-4.2h4.2v-10.52h-4.2v-4.2h-25.24v18.91h25.24Z"/><path d="M138.94,88.04v-4.2h-4.2v-4.2h-4.2v-4.2h-4.2V41.79h4.2v-4.2h4.2v-4.2h4.2v-4.23h25.24v4.23h4.2v4.2h4.23v4.2h4.2v33.66h-4.2v4.2h-4.23v4.2h-4.2v4.2h-25.24Zm21.04-8.39v-4.2h4.2v-4.23h4.2v-25.21h-4.2v-4.23h-4.2v-4.2h-16.82v4.2h-4.23v4.23h-4.2v25.21h4.2v4.23h4.23v4.2h16.82Z"/><path d="M191.48,88.04v-4.2h-4.2v-4.2h-4.2v-12.62h8.39v8.42h4.2v4.2h8.42v-4.2h4.2V29.17h8.42v50.48h-4.2v4.2h-4.23v4.2h-16.82Z"/><path d="M225.1,88.04V29.17h42.03v8.42h-33.63v14.72h29.44v8.42h-29.44v18.91h33.63v8.39h-42.03Z"/><path d="M286,88.04v-4.2h-4.2v-4.2h-4.2v-4.2h-4.2V41.79h4.2v-4.2h4.2v-4.2h4.2v-4.23h25.24v4.23h4.2v4.2h4.23v4.2h4.2v8.42h-8.42v-4.2h-4.2v-4.23h-4.2v-4.2h-16.82v4.2h-4.23v4.23h-4.2v25.21h4.2v4.23h4.23v4.2h16.82v-4.2h4.2v-4.23h4.2v-4.2h8.42v8.42h-4.2v4.2h-4.23v4.2h-4.2v4.2h-25.24Z"/><path d="M344.86,88.04V37.59h-16.82v-8.42h42.03v8.42h-16.82v50.45h-8.39Z"/><path d="M386.85,88.04v-4.2h-4.2v-4.2h-4.2v-4.2h-4.2V41.79h4.2v-4.2h4.2v-4.2h4.2v-4.23h25.24v4.23h4.2v4.2h4.23v4.2h4.2v33.66h-4.2v4.2h-4.23v4.2h-4.2v4.2h-25.24Zm21.04-8.39v-4.2h4.2v-4.23h4.2v-25.21h-4.2v-4.23h-4.2v-4.2h-16.82v4.2h-4.23v4.23h-4.2v25.21h4.2v4.23h4.23v4.2h16.82Z"/><path d="M433.08,88.04V29.17h37.83v4.23h4.2v4.2h4.23v18.91h-4.23v4.23h-4.2v4.2h4.2v4.2h4.23v18.91h-8.42v-14.72h-4.2v-4.2h-4.2v-4.2h-21.04v23.11h-8.39Zm33.63-31.54v-4.2h4.2v-10.52h-4.2v-4.2h-25.24v18.91h25.24Z"/></svg>