<?xml version="1.0" encoding="utf-8"?>
<!-- Generator: Adobe Illustrator 26.1.0, SVG Export Plug-In . SVG Version: 6.00 Build 0)  -->
<svg version="1.1" id="Layer_1" xmlns="http://www.w3.org/2000/svg" xmlns:xlink="http://www.w3.org/1999/xlink" x="0px" y="0px"
	 viewBox="0 0 736.74 149.02" style="enable-background:new 0 0 736.74 149.02;" xml:space="preserve">
<g>
	<g>
		<path d="M20.95,120.11v-5.64h11.31V35.17H20.95V29.5h62.3v11.34h5.67v11.3h-5.67v-5.63h-5.67v-5.67h-5.67v-5.67H43.59v33.98h28.31
			V57.81h5.67v28.31h-5.67v-11.3H43.59v39.65h11.34v5.64H20.95z"/>
		<path d="M114.4,114.48v-5.67h-5.67v-5.67h-5.67V91.8h-5.63V57.81h5.63v-11.3h5.67v-5.67h5.67v-5.67h11.34v5.67h-5.67v5.67h-5.67
			v11.3h-5.67V91.8h5.67v11.34h5.67v5.67h5.67v5.67H114.4z M125.74,35.17V29.5h28.32v5.67H125.74z M125.74,120.11v-5.64h28.32v5.64
			H125.74z M154.06,114.48v-5.67h5.67v-5.67h5.67V91.8h5.64V57.81h-5.64v-11.3h-5.67v-5.67h-5.67v-5.67h11.34v5.67h5.64v5.67h5.67
			v11.3h5.67V91.8h-5.67v11.34h-5.67v5.67h-5.64v5.67H154.06z"/>
		<path d="M216.36,114.48v-5.67h-5.67v-5.67h-5.67V91.8h-5.64V57.81h5.64v-11.3h5.67v-5.67h5.67v-5.67h11.34v5.67h-5.67v5.67h-5.67
			v11.3h-5.67V91.8h5.67v11.34h5.67v5.67h5.67v5.67H216.36z M227.7,35.17V29.5h28.31v5.67H227.7z M227.7,120.11v-5.64h28.31v5.64
			H227.7z M256.01,114.48v-5.67h5.67v-5.67h5.67V91.8h5.63V57.81h-5.63v-11.3h-5.67v-5.67h-5.67v-5.67h11.34v5.67h5.63v5.67h5.67
			v11.3h5.67V91.8h-5.67v11.34h-5.67v5.67h-5.63v5.67H256.01z"/>
		<path d="M290,120.11v-5.64h11.31V35.17H290V29.5h56.63v5.67h-33.98v79.31h33.98v5.64H290z M346.63,114.48v-5.67h5.67v-5.67h5.67
			V91.8h5.63V57.81h-5.63v-11.3h-5.67v-5.67h-5.67v-5.67h11.34v5.67h5.63v5.67h5.67v11.3h5.67V91.8h-5.67v11.34h-5.67v5.67h-5.63
			v5.67H346.63z"/>
	</g>
	<g>
		<path d="M392.98,119.36V28.91h19.34v12.94h6.49v19.39h6.45v19.39h6.45v19.39h6.49V80.63h6.45V61.24h6.45V41.85h6.45V28.91h19.39
			v90.45h-12.9V61.24h-6.49v19.39h-6.45v19.39h-6.45v19.34h-19.39v-19.34h-6.45V80.63h-6.49V61.24h-6.45v58.12H392.98z"/>
		<path d="M489.81,119.36v-19.34h6.45V80.63h6.45V61.24h6.45V41.85h6.49V28.91h19.39v12.94h6.45v19.39h6.45v19.39h6.45v19.39h6.49
			v19.34h-12.94v-19.34h-45.22v19.34H489.81z M541.48,87.07v-6.45h-6.45V61.24h-6.49V48.3h-6.45v12.94h-6.45v19.39h-6.49v6.45
			H541.48z"/>
		<path d="M573.74,119.36V28.91h58.12v6.49h6.45v6.45h6.49v29.06h-6.49v6.49h-6.45v6.45h6.45v6.45h6.49v29.06h-12.94V96.75h-6.45
			V90.3h-6.45v-6.45h-32.33v35.51H573.74z M625.41,70.91v-6.45h6.45V48.3h-6.45v-6.45h-38.78v29.06H625.41z"/>
		<path d="M677.06,119.36V41.85h-25.83V28.91h64.57v12.94h-25.84v77.51H677.06z"/>
	</g>
</g>
</svg>
